<?xml version="1.0" encoding="UTF-8" standalone="no"?>
<!DOCTYPE svg PUBLIC "-//W3C//DTD SVG 1.1//EN"
 "http://www.w3.org/Graphics/SVG/1.1/DTD/svg11.dtd">
<!-- Generated by graphviz version 2.40.1 (20161225.0304)
 -->
<!-- Title: dependencies Pages: 1 -->
<svg width="504pt" height="284pt"
 viewBox="0.00 0.00 504.00 284.00" xmlns="http://www.w3.org/2000/svg" xmlns:xlink="http://www.w3.org/1999/xlink">
<g id="graph0" class="graph" transform="scale(1 1) rotate(0) translate(4 280)">
<title>dependencies</title>
<polygon fill="#ffffff" stroke="transparent" points="-4,4 -4,-280 500,-280 500,4 -4,4"/>
<text text-anchor="start" x="227.0091" y="-42.4" font-family="sans-serif" font-weight="bold" font-size="14.00" fill="#000000">Legend</text>
<polygon fill="#ffffb3" stroke="transparent" points="14,-10 14,-30 34,-30 34,-10 14,-10"/>
<text text-anchor="start" x="37.629" y="-15.4" font-family="sans-serif" font-size="14.00" fill="#000000"> &#160;Declarations</text>
<polygon fill="#8dd3c7" stroke="transparent" points="127,-10 127,-30 147,-30 147,-10 127,-10"/>
<text text-anchor="start" x="150.7251" y="-15.4" font-family="sans-serif" font-size="14.00" fill="#000000"> &#160;Module</text>
<polygon fill="#80b1d3" stroke="transparent" points="213,-10 213,-30 233,-30 233,-10 213,-10"/>
<text text-anchor="start" x="236.7812" y="-15.4" font-family="sans-serif" font-size="14.00" fill="#000000"> &#160;Bootstrap</text>
<polygon fill="#fdb462" stroke="transparent" points="310,-10 310,-30 330,-30 330,-10 310,-10"/>
<text text-anchor="start" x="333.6732" y="-15.4" font-family="sans-serif" font-size="14.00" fill="#000000"> &#160;Providers</text>
<polygon fill="#fb8072" stroke="transparent" points="406,-10 406,-30 426,-30 426,-10 406,-10"/>
<text text-anchor="start" x="429.7258" y="-15.4" font-family="sans-serif" font-size="14.00" fill="#000000"> &#160;Exports</text>
<g id="clust1" class="cluster">
<title>cluster_BoardModule</title>
<polygon fill="none" stroke="#000000" stroke-dasharray="1,5" points="107,-70 107,-268 389,-268 389,-70 107,-70"/>
</g>
<g id="clust3" class="cluster">
<title>cluster_BoardModule_imports</title>
<polygon fill="none" stroke="#000000" points="267,-78 267,-130 381,-130 381,-78 267,-78"/>
</g>
<g id="clust4" class="cluster">
<title>cluster_BoardModule_exports</title>
<polygon fill="none" stroke="#000000" points="199,-208 199,-260 311,-260 311,-208 199,-208"/>
</g>
<g id="clust6" class="cluster">
<title>cluster_BoardModule_providers</title>
<polygon fill="none" stroke="#000000" points="115,-78 115,-130 259,-130 259,-78 115,-78"/>
</g>
<!-- SharedModule -->
<g id="node1" class="node">
<title>SharedModule</title>
<polygon fill="#8dd3c7" stroke="#000000" points="373.4231,-122 370.4231,-126 349.4231,-126 346.4231,-122 274.5769,-122 274.5769,-86 373.4231,-86 373.4231,-122"/>
<text text-anchor="middle" x="324" y="-99.8" font-family="Times,serif" font-size="14.00" fill="#000000">SharedModule</text>
</g>
<!-- BoardModule -->
<g id="node2" class="node">
<title>BoardModule</title>
<polygon fill="#8dd3c7" stroke="#000000" points="301.7619,-187 298.7619,-191 277.7619,-191 274.7619,-187 208.2381,-187 208.2381,-151 301.7619,-151 301.7619,-187"/>
<text text-anchor="middle" x="255" y="-164.8" font-family="Times,serif" font-size="14.00" fill="#000000">BoardModule</text>
</g>
<!-- SharedModule&#45;&gt;BoardModule -->
<g id="edge1" class="edge">
<title>SharedModule&#45;&gt;BoardModule</title>
<path fill="none" stroke="#000000" d="M288.3348,-122.1061C288.3348,-122.1061 288.3348,-140.991 288.3348,-140.991"/>
<polygon fill="#000000" stroke="#000000" points="284.8349,-140.9909 288.3348,-150.991 291.8349,-140.991 284.8349,-140.9909"/>
</g>
<!-- BoardService  -->
<g id="node3" class="node">
<title>BoardService </title>
<polygon fill="#fb8072" stroke="#000000" points="302.6899,-252 207.3101,-252 207.3101,-216 302.6899,-216 302.6899,-252"/>
<text text-anchor="middle" x="255" y="-229.8" font-family="Times,serif" font-size="14.00" fill="#000000">BoardService </text>
</g>
<!-- BoardModule&#45;&gt;BoardService  -->
<g id="edge2" class="edge">
<title>BoardModule&#45;&gt;BoardService </title>
<path fill="none" stroke="#000000" stroke-dasharray="5,2" d="M255,-187.1061C255,-187.1061 255,-205.991 255,-205.991"/>
<polygon fill="#000000" stroke="#000000" points="251.5001,-205.9909 255,-215.991 258.5001,-205.991 251.5001,-205.9909"/>
</g>
<!-- BoardService -->
<g id="node4" class="node">
<title>BoardService</title>
<ellipse fill="#fdb462" stroke="#000000" cx="187" cy="-104" rx="63.6813" ry="18"/>
<text text-anchor="middle" x="187" y="-99.8" font-family="Times,serif" font-size="14.00" fill="#000000">BoardService</text>
</g>
<!-- BoardService&#45;&gt;BoardModule -->
<g id="edge3" class="edge">
<title>BoardService&#45;&gt;BoardModule</title>
<path fill="none" stroke="#000000" d="M229.3549,-117.468C229.3549,-117.468 229.3549,-140.8642 229.3549,-140.8642"/>
<polygon fill="#000000" stroke="#000000" points="225.855,-140.8641 229.3549,-150.8642 232.855,-140.8642 225.855,-140.8641"/>
</g>
</g>
</svg>
