<?xml version="1.0" encoding="UTF-8" standalone="no"?>
<!DOCTYPE svg PUBLIC "-//W3C//DTD SVG 1.1//EN"
 "http://www.w3.org/Graphics/SVG/1.1/DTD/svg11.dtd">
<!-- Generated by graphviz version 2.40.1 (20161225.0304)
 -->
<!-- Title: dependencies Pages: 1 -->
<svg width="522pt" height="284pt"
 viewBox="0.00 0.00 522.00 284.00" xmlns="http://www.w3.org/2000/svg" xmlns:xlink="http://www.w3.org/1999/xlink">
<g id="graph0" class="graph" transform="scale(1 1) rotate(0) translate(4 280)">
<title>dependencies</title>
<polygon fill="#ffffff" stroke="transparent" points="-4,4 -4,-280 518,-280 518,4 -4,4"/>
<text text-anchor="start" x="236.0091" y="-42.4" font-family="sans-serif" font-weight="bold" font-size="14.00" fill="#000000">Legend</text>
<polygon fill="#ffffb3" stroke="transparent" points="23,-10 23,-30 43,-30 43,-10 23,-10"/>
<text text-anchor="start" x="46.629" y="-15.4" font-family="sans-serif" font-size="14.00" fill="#000000"> &#160;Declarations</text>
<polygon fill="#8dd3c7" stroke="transparent" points="136,-10 136,-30 156,-30 156,-10 136,-10"/>
<text text-anchor="start" x="159.7251" y="-15.4" font-family="sans-serif" font-size="14.00" fill="#000000"> &#160;Module</text>
<polygon fill="#80b1d3" stroke="transparent" points="222,-10 222,-30 242,-30 242,-10 222,-10"/>
<text text-anchor="start" x="245.7812" y="-15.4" font-family="sans-serif" font-size="14.00" fill="#000000"> &#160;Bootstrap</text>
<polygon fill="#fdb462" stroke="transparent" points="319,-10 319,-30 339,-30 339,-10 319,-10"/>
<text text-anchor="start" x="342.6732" y="-15.4" font-family="sans-serif" font-size="14.00" fill="#000000"> &#160;Providers</text>
<polygon fill="#fb8072" stroke="transparent" points="415,-10 415,-30 435,-30 435,-10 415,-10"/>
<text text-anchor="start" x="438.7258" y="-15.4" font-family="sans-serif" font-size="14.00" fill="#000000"> &#160;Exports</text>
<g id="clust1" class="cluster">
<title>cluster_PinsModule</title>
<polygon fill="none" stroke="#000000" stroke-dasharray="1,5" points="8,-70 8,-268 506,-268 506,-70 8,-70"/>
</g>
<g id="clust3" class="cluster">
<title>cluster_PinsModule_imports</title>
<polygon fill="none" stroke="#000000" points="154,-78 154,-130 498,-130 498,-78 154,-78"/>
</g>
<g id="clust4" class="cluster">
<title>cluster_PinsModule_exports</title>
<polygon fill="none" stroke="#000000" points="218,-208 218,-260 320,-260 320,-208 218,-208"/>
</g>
<g id="clust6" class="cluster">
<title>cluster_PinsModule_providers</title>
<polygon fill="none" stroke="#000000" points="16,-78 16,-130 146,-130 146,-78 16,-78"/>
</g>
<!-- BoardModule -->
<g id="node1" class="node">
<title>BoardModule</title>
<polygon fill="#8dd3c7" stroke="#000000" points="489.7619,-122 486.7619,-126 465.7619,-126 462.7619,-122 396.2381,-122 396.2381,-86 489.7619,-86 489.7619,-122"/>
<text text-anchor="middle" x="443" y="-99.8" font-family="Times,serif" font-size="14.00" fill="#000000">BoardModule</text>
</g>
<!-- PinsModule -->
<g id="node4" class="node">
<title>PinsModule</title>
<polygon fill="#8dd3c7" stroke="#000000" points="310.6683,-187 307.6683,-191 286.6683,-191 283.6683,-187 227.3317,-187 227.3317,-151 310.6683,-151 310.6683,-187"/>
<text text-anchor="middle" x="269" y="-164.8" font-family="Times,serif" font-size="14.00" fill="#000000">PinsModule</text>
</g>
<!-- BoardModule&#45;&gt;PinsModule -->
<g id="edge1" class="edge">
<title>BoardModule&#45;&gt;PinsModule</title>
<path fill="none" stroke="#000000" d="M443,-122.1061C443,-141.3391 443,-169 443,-169 443,-169 320.6773,-169 320.6773,-169"/>
<polygon fill="#000000" stroke="#000000" points="320.6774,-165.5001 310.6773,-169 320.6773,-172.5001 320.6774,-165.5001"/>
</g>
<!-- ImagesModule -->
<g id="node2" class="node">
<title>ImagesModule</title>
<polygon fill="#8dd3c7" stroke="#000000" points="377.9748,-122 374.9748,-126 353.9748,-126 350.9748,-122 278.0252,-122 278.0252,-86 377.9748,-86 377.9748,-122"/>
<text text-anchor="middle" x="328" y="-99.8" font-family="Times,serif" font-size="14.00" fill="#000000">ImagesModule</text>
</g>
<!-- ImagesModule&#45;&gt;PinsModule -->
<g id="edge2" class="edge">
<title>ImagesModule&#45;&gt;PinsModule</title>
<path fill="none" stroke="#000000" d="M294.4232,-122.1061C294.4232,-122.1061 294.4232,-140.991 294.4232,-140.991"/>
<polygon fill="#000000" stroke="#000000" points="290.9233,-140.9909 294.4232,-150.991 297.9233,-140.991 290.9233,-140.9909"/>
</g>
<!-- SharedModule -->
<g id="node3" class="node">
<title>SharedModule</title>
<polygon fill="#8dd3c7" stroke="#000000" points="260.4231,-122 257.4231,-126 236.4231,-126 233.4231,-122 161.5769,-122 161.5769,-86 260.4231,-86 260.4231,-122"/>
<text text-anchor="middle" x="211" y="-99.8" font-family="Times,serif" font-size="14.00" fill="#000000">SharedModule</text>
</g>
<!-- SharedModule&#45;&gt;PinsModule -->
<g id="edge3" class="edge">
<title>SharedModule&#45;&gt;PinsModule</title>
<path fill="none" stroke="#000000" d="M243.6887,-122.1061C243.6887,-122.1061 243.6887,-140.991 243.6887,-140.991"/>
<polygon fill="#000000" stroke="#000000" points="240.1887,-140.9909 243.6887,-150.991 247.1887,-140.991 240.1887,-140.9909"/>
</g>
<!-- PinsService  -->
<g id="node5" class="node">
<title>PinsService </title>
<polygon fill="#fb8072" stroke="#000000" points="311.5964,-252 226.4036,-252 226.4036,-216 311.5964,-216 311.5964,-252"/>
<text text-anchor="middle" x="269" y="-229.8" font-family="Times,serif" font-size="14.00" fill="#000000">PinsService </text>
</g>
<!-- PinsModule&#45;&gt;PinsService  -->
<g id="edge4" class="edge">
<title>PinsModule&#45;&gt;PinsService </title>
<path fill="none" stroke="#000000" stroke-dasharray="5,2" d="M269,-187.1061C269,-187.1061 269,-205.991 269,-205.991"/>
<polygon fill="#000000" stroke="#000000" points="265.5001,-205.9909 269,-215.991 272.5001,-205.991 265.5001,-205.9909"/>
</g>
<!-- PinsService -->
<g id="node6" class="node">
<title>PinsService</title>
<ellipse fill="#fdb462" stroke="#000000" cx="81" cy="-104" rx="56.7561" ry="18"/>
<text text-anchor="middle" x="81" y="-99.8" font-family="Times,serif" font-size="14.00" fill="#000000">PinsService</text>
</g>
<!-- PinsService&#45;&gt;PinsModule -->
<g id="edge5" class="edge">
<title>PinsService&#45;&gt;PinsModule</title>
<path fill="none" stroke="#000000" d="M81,-122.1061C81,-141.3391 81,-169 81,-169 81,-169 217.2767,-169 217.2767,-169"/>
<polygon fill="#000000" stroke="#000000" points="217.2767,-172.5001 227.2767,-169 217.2767,-165.5001 217.2767,-172.5001"/>
</g>
</g>
</svg>
