<?xml version="1.0" encoding="UTF-8" standalone="no"?>
<!DOCTYPE svg PUBLIC "-//W3C//DTD SVG 1.1//EN"
 "http://www.w3.org/Graphics/SVG/1.1/DTD/svg11.dtd">
<!-- Generated by graphviz version 2.40.1 (20161225.0304)
 -->
<!-- Title: dependencies Pages: 1 -->
<svg width="572pt" height="284pt"
 viewBox="0.00 0.00 572.00 284.00" xmlns="http://www.w3.org/2000/svg" xmlns:xlink="http://www.w3.org/1999/xlink">
<g id="graph0" class="graph" transform="scale(1 1) rotate(0) translate(4 280)">
<title>dependencies</title>
<polygon fill="#ffffff" stroke="transparent" points="-4,4 -4,-280 568,-280 568,4 -4,4"/>
<text text-anchor="start" x="261.0091" y="-42.4" font-family="sans-serif" font-weight="bold" font-size="14.00" fill="#000000">Legend</text>
<polygon fill="#ffffb3" stroke="transparent" points="48,-10 48,-30 68,-30 68,-10 48,-10"/>
<text text-anchor="start" x="71.629" y="-15.4" font-family="sans-serif" font-size="14.00" fill="#000000"> &#160;Declarations</text>
<polygon fill="#8dd3c7" stroke="transparent" points="161,-10 161,-30 181,-30 181,-10 161,-10"/>
<text text-anchor="start" x="184.7251" y="-15.4" font-family="sans-serif" font-size="14.00" fill="#000000"> &#160;Module</text>
<polygon fill="#80b1d3" stroke="transparent" points="247,-10 247,-30 267,-30 267,-10 247,-10"/>
<text text-anchor="start" x="270.7812" y="-15.4" font-family="sans-serif" font-size="14.00" fill="#000000"> &#160;Bootstrap</text>
<polygon fill="#fdb462" stroke="transparent" points="344,-10 344,-30 364,-30 364,-10 344,-10"/>
<text text-anchor="start" x="367.6732" y="-15.4" font-family="sans-serif" font-size="14.00" fill="#000000"> &#160;Providers</text>
<polygon fill="#fb8072" stroke="transparent" points="440,-10 440,-30 460,-30 460,-10 440,-10"/>
<text text-anchor="start" x="463.7258" y="-15.4" font-family="sans-serif" font-size="14.00" fill="#000000"> &#160;Exports</text>
<g id="clust1" class="cluster">
<title>cluster_ImagesModule</title>
<polygon fill="none" stroke="#000000" stroke-dasharray="1,5" points="8,-70 8,-268 556,-268 556,-70 8,-70"/>
</g>
<g id="clust3" class="cluster">
<title>cluster_ImagesModule_imports</title>
<polygon fill="none" stroke="#000000" points="434,-78 434,-130 548,-130 548,-78 434,-78"/>
</g>
<g id="clust4" class="cluster">
<title>cluster_ImagesModule_exports</title>
<polygon fill="none" stroke="#000000" points="239,-208 239,-260 357,-260 357,-208 239,-208"/>
</g>
<g id="clust6" class="cluster">
<title>cluster_ImagesModule_providers</title>
<polygon fill="none" stroke="#000000" points="16,-78 16,-130 426,-130 426,-78 16,-78"/>
</g>
<!-- SharedModule -->
<g id="node1" class="node">
<title>SharedModule</title>
<polygon fill="#8dd3c7" stroke="#000000" points="540.4231,-122 537.4231,-126 516.4231,-126 513.4231,-122 441.5769,-122 441.5769,-86 540.4231,-86 540.4231,-122"/>
<text text-anchor="middle" x="491" y="-99.8" font-family="Times,serif" font-size="14.00" fill="#000000">SharedModule</text>
</g>
<!-- ImagesModule -->
<g id="node2" class="node">
<title>ImagesModule</title>
<polygon fill="#8dd3c7" stroke="#000000" points="347.9748,-187 344.9748,-191 323.9748,-191 320.9748,-187 248.0252,-187 248.0252,-151 347.9748,-151 347.9748,-187"/>
<text text-anchor="middle" x="298" y="-164.8" font-family="Times,serif" font-size="14.00" fill="#000000">ImagesModule</text>
</g>
<!-- SharedModule&#45;&gt;ImagesModule -->
<g id="edge1" class="edge">
<title>SharedModule&#45;&gt;ImagesModule</title>
<path fill="none" stroke="#000000" d="M491,-122.1061C491,-141.3391 491,-169 491,-169 491,-169 358.2047,-169 358.2047,-169"/>
<polygon fill="#000000" stroke="#000000" points="358.2047,-165.5001 348.2047,-169 358.2046,-172.5001 358.2047,-165.5001"/>
</g>
<!-- ImagesService  -->
<g id="node3" class="node">
<title>ImagesService </title>
<polygon fill="#fb8072" stroke="#000000" points="348.9026,-252 247.0974,-252 247.0974,-216 348.9026,-216 348.9026,-252"/>
<text text-anchor="middle" x="298" y="-229.8" font-family="Times,serif" font-size="14.00" fill="#000000">ImagesService </text>
</g>
<!-- ImagesModule&#45;&gt;ImagesService  -->
<g id="edge2" class="edge">
<title>ImagesModule&#45;&gt;ImagesService </title>
<path fill="none" stroke="#000000" stroke-dasharray="5,2" d="M298,-187.1061C298,-187.1061 298,-205.991 298,-205.991"/>
<polygon fill="#000000" stroke="#000000" points="294.5001,-205.9909 298,-215.991 301.5001,-205.991 294.5001,-205.9909"/>
</g>
<!-- GridFsMulterConfigService -->
<g id="node4" class="node">
<title>GridFsMulterConfigService</title>
<ellipse fill="#fdb462" stroke="#000000" cx="298" cy="-104" rx="119.8391" ry="18"/>
<text text-anchor="middle" x="298" y="-99.8" font-family="Times,serif" font-size="14.00" fill="#000000">GridFsMulterConfigService</text>
</g>
<!-- GridFsMulterConfigService&#45;&gt;ImagesModule -->
<g id="edge3" class="edge">
<title>GridFsMulterConfigService&#45;&gt;ImagesModule</title>
<path fill="none" stroke="#000000" d="M298,-122.1061C298,-122.1061 298,-140.991 298,-140.991"/>
<polygon fill="#000000" stroke="#000000" points="294.5001,-140.9909 298,-150.991 301.5001,-140.991 294.5001,-140.9909"/>
</g>
<!-- ImagesService -->
<g id="node5" class="node">
<title>ImagesService</title>
<ellipse fill="#fdb462" stroke="#000000" cx="92" cy="-104" rx="67.7529" ry="18"/>
<text text-anchor="middle" x="92" y="-99.8" font-family="Times,serif" font-size="14.00" fill="#000000">ImagesService</text>
</g>
<!-- ImagesService&#45;&gt;ImagesModule -->
<g id="edge4" class="edge">
<title>ImagesService&#45;&gt;ImagesModule</title>
<path fill="none" stroke="#000000" d="M92,-122.1061C92,-141.3391 92,-169 92,-169 92,-169 237.8701,-169 237.8701,-169"/>
<polygon fill="#000000" stroke="#000000" points="237.8702,-172.5001 247.8701,-169 237.8701,-165.5001 237.8702,-172.5001"/>
</g>
</g>
</svg>
