<?xml version="1.0" encoding="UTF-8" standalone="no"?>
<!DOCTYPE svg PUBLIC "-//W3C//DTD SVG 1.1//EN"
 "http://www.w3.org/Graphics/SVG/1.1/DTD/svg11.dtd">
<!-- Generated by graphviz version 2.40.1 (20161225.0304)
 -->
<!-- Title: dependencies Pages: 1 -->
<svg width="504pt" height="284pt"
 viewBox="0.00 0.00 504.00 284.00" xmlns="http://www.w3.org/2000/svg" xmlns:xlink="http://www.w3.org/1999/xlink">
<g id="graph0" class="graph" transform="scale(1 1) rotate(0) translate(4 280)">
<title>dependencies</title>
<polygon fill="#ffffff" stroke="transparent" points="-4,4 -4,-280 500,-280 500,4 -4,4"/>
<text text-anchor="start" x="227.0091" y="-42.4" font-family="sans-serif" font-weight="bold" font-size="14.00" fill="#000000">Legend</text>
<polygon fill="#ffffb3" stroke="transparent" points="14,-10 14,-30 34,-30 34,-10 14,-10"/>
<text text-anchor="start" x="37.629" y="-15.4" font-family="sans-serif" font-size="14.00" fill="#000000"> &#160;Declarations</text>
<polygon fill="#8dd3c7" stroke="transparent" points="127,-10 127,-30 147,-30 147,-10 127,-10"/>
<text text-anchor="start" x="150.7251" y="-15.4" font-family="sans-serif" font-size="14.00" fill="#000000"> &#160;Module</text>
<polygon fill="#80b1d3" stroke="transparent" points="213,-10 213,-30 233,-30 233,-10 213,-10"/>
<text text-anchor="start" x="236.7812" y="-15.4" font-family="sans-serif" font-size="14.00" fill="#000000"> &#160;Bootstrap</text>
<polygon fill="#fdb462" stroke="transparent" points="310,-10 310,-30 330,-30 330,-10 310,-10"/>
<text text-anchor="start" x="333.6732" y="-15.4" font-family="sans-serif" font-size="14.00" fill="#000000"> &#160;Providers</text>
<polygon fill="#fb8072" stroke="transparent" points="406,-10 406,-30 426,-30 426,-10 406,-10"/>
<text text-anchor="start" x="429.7258" y="-15.4" font-family="sans-serif" font-size="14.00" fill="#000000"> &#160;Exports</text>
<g id="clust1" class="cluster">
<title>cluster_ImagesModule</title>
<polygon fill="none" stroke="#000000" stroke-dasharray="1,5" points="103,-70 103,-268 393,-268 393,-70 103,-70"/>
</g>
<g id="clust3" class="cluster">
<title>cluster_ImagesModule_imports</title>
<polygon fill="none" stroke="#000000" points="271,-78 271,-130 385,-130 385,-78 271,-78"/>
</g>
<g id="clust4" class="cluster">
<title>cluster_ImagesModule_exports</title>
<polygon fill="none" stroke="#000000" points="197,-208 197,-260 315,-260 315,-208 197,-208"/>
</g>
<g id="clust6" class="cluster">
<title>cluster_ImagesModule_providers</title>
<polygon fill="none" stroke="#000000" points="111,-78 111,-130 263,-130 263,-78 111,-78"/>
</g>
<!-- SharedModule -->
<g id="node1" class="node">
<title>SharedModule</title>
<polygon fill="#8dd3c7" stroke="#000000" points="377.4231,-122 374.4231,-126 353.4231,-126 350.4231,-122 278.5769,-122 278.5769,-86 377.4231,-86 377.4231,-122"/>
<text text-anchor="middle" x="328" y="-99.8" font-family="Times,serif" font-size="14.00" fill="#000000">SharedModule</text>
</g>
<!-- ImagesModule -->
<g id="node2" class="node">
<title>ImagesModule</title>
<polygon fill="#8dd3c7" stroke="#000000" points="305.9748,-187 302.9748,-191 281.9748,-191 278.9748,-187 206.0252,-187 206.0252,-151 305.9748,-151 305.9748,-187"/>
<text text-anchor="middle" x="256" y="-164.8" font-family="Times,serif" font-size="14.00" fill="#000000">ImagesModule</text>
</g>
<!-- SharedModule&#45;&gt;ImagesModule -->
<g id="edge1" class="edge">
<title>SharedModule&#45;&gt;ImagesModule</title>
<path fill="none" stroke="#000000" d="M292.3882,-122.1061C292.3882,-122.1061 292.3882,-140.991 292.3882,-140.991"/>
<polygon fill="#000000" stroke="#000000" points="288.8882,-140.9909 292.3882,-150.991 295.8882,-140.991 288.8882,-140.9909"/>
</g>
<!-- ImagesService  -->
<g id="node3" class="node">
<title>ImagesService </title>
<polygon fill="#fb8072" stroke="#000000" points="306.9026,-252 205.0974,-252 205.0974,-216 306.9026,-216 306.9026,-252"/>
<text text-anchor="middle" x="256" y="-229.8" font-family="Times,serif" font-size="14.00" fill="#000000">ImagesService </text>
</g>
<!-- ImagesModule&#45;&gt;ImagesService  -->
<g id="edge2" class="edge">
<title>ImagesModule&#45;&gt;ImagesService </title>
<path fill="none" stroke="#000000" stroke-dasharray="5,2" d="M256,-187.1061C256,-187.1061 256,-205.991 256,-205.991"/>
<polygon fill="#000000" stroke="#000000" points="252.5001,-205.9909 256,-215.991 259.5001,-205.991 252.5001,-205.9909"/>
</g>
<!-- ImagesService -->
<g id="node4" class="node">
<title>ImagesService</title>
<ellipse fill="#fdb462" stroke="#000000" cx="187" cy="-104" rx="67.7529" ry="18"/>
<text text-anchor="middle" x="187" y="-99.8" font-family="Times,serif" font-size="14.00" fill="#000000">ImagesService</text>
</g>
<!-- ImagesService&#45;&gt;ImagesModule -->
<g id="edge3" class="edge">
<title>ImagesService&#45;&gt;ImagesModule</title>
<path fill="none" stroke="#000000" d="M230.4445,-118.104C230.4445,-118.104 230.4445,-140.7209 230.4445,-140.7209"/>
<polygon fill="#000000" stroke="#000000" points="226.9446,-140.7209 230.4445,-150.7209 233.9446,-140.7209 226.9446,-140.7209"/>
</g>
</g>
</svg>
