<?xml version="1.0" encoding="UTF-8" standalone="no"?>
<!DOCTYPE svg PUBLIC "-//W3C//DTD SVG 1.1//EN"
 "http://www.w3.org/Graphics/SVG/1.1/DTD/svg11.dtd">
<!-- Generated by graphviz version 2.40.1 (20161225.0304)
 -->
<!-- Title: dependencies Pages: 1 -->
<svg width="504pt" height="211pt"
 viewBox="0.00 0.00 504.00 211.00" xmlns="http://www.w3.org/2000/svg" xmlns:xlink="http://www.w3.org/1999/xlink">
<g id="graph0" class="graph" transform="scale(1 1) rotate(0) translate(4 207)">
<title>dependencies</title>
<polygon fill="#ffffff" stroke="transparent" points="-4,4 -4,-207 500,-207 500,4 -4,4"/>
<text text-anchor="start" x="227.0091" y="-42.4" font-family="sans-serif" font-weight="bold" font-size="14.00" fill="#000000">Legend</text>
<polygon fill="#ffffb3" stroke="transparent" points="14,-10 14,-30 34,-30 34,-10 14,-10"/>
<text text-anchor="start" x="37.629" y="-15.4" font-family="sans-serif" font-size="14.00" fill="#000000"> &#160;Declarations</text>
<polygon fill="#8dd3c7" stroke="transparent" points="127,-10 127,-30 147,-30 147,-10 127,-10"/>
<text text-anchor="start" x="150.7251" y="-15.4" font-family="sans-serif" font-size="14.00" fill="#000000"> &#160;Module</text>
<polygon fill="#80b1d3" stroke="transparent" points="213,-10 213,-30 233,-30 233,-10 213,-10"/>
<text text-anchor="start" x="236.7812" y="-15.4" font-family="sans-serif" font-size="14.00" fill="#000000"> &#160;Bootstrap</text>
<polygon fill="#fdb462" stroke="transparent" points="310,-10 310,-30 330,-30 330,-10 310,-10"/>
<text text-anchor="start" x="333.6732" y="-15.4" font-family="sans-serif" font-size="14.00" fill="#000000"> &#160;Providers</text>
<polygon fill="#fb8072" stroke="transparent" points="406,-10 406,-30 426,-30 426,-10 406,-10"/>
<text text-anchor="start" x="429.7258" y="-15.4" font-family="sans-serif" font-size="14.00" fill="#000000"> &#160;Exports</text>
<g id="clust1" class="cluster">
<title>cluster_TopicModule</title>
<polygon fill="none" stroke="#000000" stroke-dasharray="1,5" points="56,-70 56,-195 440,-195 440,-70 56,-70"/>
</g>
<g id="clust3" class="cluster">
<title>cluster_TopicModule_imports</title>
<polygon fill="none" stroke="#000000" points="214,-78 214,-130 432,-130 432,-78 214,-78"/>
</g>
<g id="clust6" class="cluster">
<title>cluster_TopicModule_providers</title>
<polygon fill="none" stroke="#000000" points="64,-78 64,-130 206,-130 206,-78 64,-78"/>
</g>
<!-- SharedModule -->
<g id="node1" class="node">
<title>SharedModule</title>
<polygon fill="#8dd3c7" stroke="#000000" points="424.4231,-122 421.4231,-126 400.4231,-126 397.4231,-122 325.5769,-122 325.5769,-86 424.4231,-86 424.4231,-122"/>
<text text-anchor="middle" x="375" y="-99.8" font-family="Times,serif" font-size="14.00" fill="#000000">SharedModule</text>
</g>
<!-- TopicModule -->
<g id="node3" class="node">
<title>TopicModule</title>
<polygon fill="#8dd3c7" stroke="#000000" points="311.2078,-187 308.2078,-191 287.2078,-191 284.2078,-187 218.7922,-187 218.7922,-151 311.2078,-151 311.2078,-187"/>
<text text-anchor="middle" x="265" y="-164.8" font-family="Times,serif" font-size="14.00" fill="#000000">TopicModule</text>
</g>
<!-- SharedModule&#45;&gt;TopicModule -->
<g id="edge1" class="edge">
<title>SharedModule&#45;&gt;TopicModule</title>
<path fill="none" stroke="#000000" d="M375,-122.1061C375,-141.3391 375,-169 375,-169 375,-169 321.3311,-169 321.3311,-169"/>
<polygon fill="#000000" stroke="#000000" points="321.3311,-165.5001 311.3311,-169 321.3311,-172.5001 321.3311,-165.5001"/>
</g>
<!-- UserModule -->
<g id="node2" class="node">
<title>UserModule</title>
<polygon fill="#8dd3c7" stroke="#000000" points="307.9762,-122 304.9762,-126 283.9762,-126 280.9762,-122 222.0238,-122 222.0238,-86 307.9762,-86 307.9762,-122"/>
<text text-anchor="middle" x="265" y="-99.8" font-family="Times,serif" font-size="14.00" fill="#000000">UserModule</text>
</g>
<!-- UserModule&#45;&gt;TopicModule -->
<g id="edge2" class="edge">
<title>UserModule&#45;&gt;TopicModule</title>
<path fill="none" stroke="#000000" d="M265,-122.1061C265,-122.1061 265,-140.991 265,-140.991"/>
<polygon fill="#000000" stroke="#000000" points="261.5001,-140.9909 265,-150.991 268.5001,-140.991 261.5001,-140.9909"/>
</g>
<!-- TopicService -->
<g id="node4" class="node">
<title>TopicService</title>
<ellipse fill="#fdb462" stroke="#000000" cx="135" cy="-104" rx="62.5373" ry="18"/>
<text text-anchor="middle" x="135" y="-99.8" font-family="Times,serif" font-size="14.00" fill="#000000">TopicService</text>
</g>
<!-- TopicService&#45;&gt;TopicModule -->
<g id="edge3" class="edge">
<title>TopicService&#45;&gt;TopicModule</title>
<path fill="none" stroke="#000000" d="M135,-122.1061C135,-141.3391 135,-169 135,-169 135,-169 208.8008,-169 208.8008,-169"/>
<polygon fill="#000000" stroke="#000000" points="208.8009,-172.5001 218.8008,-169 208.8008,-165.5001 208.8009,-172.5001"/>
</g>
</g>
</svg>
