<?xml version="1.0" encoding="UTF-8" standalone="no"?>
<!DOCTYPE svg PUBLIC "-//W3C//DTD SVG 1.1//EN"
 "http://www.w3.org/Graphics/SVG/1.1/DTD/svg11.dtd">
<!-- Generated by graphviz version 2.40.1 (20161225.0304)
 -->
<!-- Title: dependencies Pages: 1 -->
<svg width="1340pt" height="211pt"
 viewBox="0.00 0.00 1340.00 211.00" xmlns="http://www.w3.org/2000/svg" xmlns:xlink="http://www.w3.org/1999/xlink">
<g id="graph0" class="graph" transform="scale(1 1) rotate(0) translate(4 207)">
<title>dependencies</title>
<polygon fill="#ffffff" stroke="transparent" points="-4,4 -4,-207 1336,-207 1336,4 -4,4"/>
<text text-anchor="start" x="645.0091" y="-42.4" font-family="sans-serif" font-weight="bold" font-size="14.00" fill="#000000">Legend</text>
<polygon fill="#ffffb3" stroke="transparent" points="432,-10 432,-30 452,-30 452,-10 432,-10"/>
<text text-anchor="start" x="455.629" y="-15.4" font-family="sans-serif" font-size="14.00" fill="#000000"> &#160;Declarations</text>
<polygon fill="#8dd3c7" stroke="transparent" points="545,-10 545,-30 565,-30 565,-10 545,-10"/>
<text text-anchor="start" x="568.7251" y="-15.4" font-family="sans-serif" font-size="14.00" fill="#000000"> &#160;Module</text>
<polygon fill="#80b1d3" stroke="transparent" points="631,-10 631,-30 651,-30 651,-10 631,-10"/>
<text text-anchor="start" x="654.7812" y="-15.4" font-family="sans-serif" font-size="14.00" fill="#000000"> &#160;Bootstrap</text>
<polygon fill="#fdb462" stroke="transparent" points="728,-10 728,-30 748,-30 748,-10 728,-10"/>
<text text-anchor="start" x="751.6732" y="-15.4" font-family="sans-serif" font-size="14.00" fill="#000000"> &#160;Providers</text>
<polygon fill="#fb8072" stroke="transparent" points="824,-10 824,-30 844,-30 844,-10 824,-10"/>
<text text-anchor="start" x="847.7258" y="-15.4" font-family="sans-serif" font-size="14.00" fill="#000000"> &#160;Exports</text>
<g id="clust1" class="cluster">
<title>cluster_AppModule</title>
<polygon fill="none" stroke="#000000" stroke-dasharray="1,5" points="8,-70 8,-195 1324,-195 1324,-70 8,-70"/>
</g>
<g id="clust3" class="cluster">
<title>cluster_AppModule_imports</title>
<polygon fill="none" stroke="#000000" points="154,-78 154,-130 1316,-130 1316,-78 154,-78"/>
</g>
<g id="clust6" class="cluster">
<title>cluster_AppModule_providers</title>
<polygon fill="none" stroke="#000000" points="16,-78 16,-130 146,-130 146,-78 16,-78"/>
</g>
<!-- AuthModule -->
<g id="node1" class="node">
<title>AuthModule</title>
<polygon fill="#8dd3c7" stroke="#000000" points="1307.5482,-122 1304.5482,-126 1283.5482,-126 1280.5482,-122 1220.4518,-122 1220.4518,-86 1307.5482,-86 1307.5482,-122"/>
<text text-anchor="middle" x="1264" y="-99.8" font-family="Times,serif" font-size="14.00" fill="#000000">AuthModule</text>
</g>
<!-- AppModule -->
<g id="node11" class="node">
<title>AppModule</title>
<polygon fill="#8dd3c7" stroke="#000000" points="728.6571,-187 725.6571,-191 704.6571,-191 701.6571,-187 645.3429,-187 645.3429,-151 728.6571,-151 728.6571,-187"/>
<text text-anchor="middle" x="687" y="-164.8" font-family="Times,serif" font-size="14.00" fill="#000000">AppModule</text>
</g>
<!-- AuthModule&#45;&gt;AppModule -->
<g id="edge1" class="edge">
<title>AuthModule&#45;&gt;AppModule</title>
<path fill="none" stroke="#000000" d="M1264,-122.0908C1264,-145.1328 1264,-182 1264,-182 1264,-182 738.9612,-182 738.9612,-182"/>
<polygon fill="#000000" stroke="#000000" points="738.9612,-178.5001 728.9612,-182 738.9612,-185.5001 738.9612,-178.5001"/>
</g>
<!-- BoardModule -->
<g id="node2" class="node">
<title>BoardModule</title>
<polygon fill="#8dd3c7" stroke="#000000" points="1201.7619,-122 1198.7619,-126 1177.7619,-126 1174.7619,-122 1108.2381,-122 1108.2381,-86 1201.7619,-86 1201.7619,-122"/>
<text text-anchor="middle" x="1155" y="-99.8" font-family="Times,serif" font-size="14.00" fill="#000000">BoardModule</text>
</g>
<!-- BoardModule&#45;&gt;AppModule -->
<g id="edge2" class="edge">
<title>BoardModule&#45;&gt;AppModule</title>
<path fill="none" stroke="#000000" d="M1155,-122.2843C1155,-143.3211 1155,-175 1155,-175 1155,-175 738.9437,-175 738.9437,-175"/>
<polygon fill="#000000" stroke="#000000" points="738.9438,-171.5001 728.9437,-175 738.9437,-178.5001 738.9438,-171.5001"/>
</g>
<!-- ChatModule -->
<g id="node3" class="node">
<title>ChatModule</title>
<polygon fill="#8dd3c7" stroke="#000000" points="1089.9916,-122 1086.9916,-126 1065.9916,-126 1062.9916,-122 1004.0084,-122 1004.0084,-86 1089.9916,-86 1089.9916,-122"/>
<text text-anchor="middle" x="1047" y="-99.8" font-family="Times,serif" font-size="14.00" fill="#000000">ChatModule</text>
</g>
<!-- ChatModule&#45;&gt;AppModule -->
<g id="edge3" class="edge">
<title>ChatModule&#45;&gt;AppModule</title>
<path fill="none" stroke="#000000" d="M1047,-122.1061C1047,-141.3391 1047,-169 1047,-169 1047,-169 739.0011,-169 739.0011,-169"/>
<polygon fill="#000000" stroke="#000000" points="739.0012,-165.5001 729.0011,-169 739.0011,-172.5001 739.0012,-165.5001"/>
</g>
<!-- ImagesModule -->
<g id="node4" class="node">
<title>ImagesModule</title>
<polygon fill="#8dd3c7" stroke="#000000" points="985.9748,-122 982.9748,-126 961.9748,-126 958.9748,-122 886.0252,-122 886.0252,-86 985.9748,-86 985.9748,-122"/>
<text text-anchor="middle" x="936" y="-99.8" font-family="Times,serif" font-size="14.00" fill="#000000">ImagesModule</text>
</g>
<!-- ImagesModule&#45;&gt;AppModule -->
<g id="edge4" class="edge">
<title>ImagesModule&#45;&gt;AppModule</title>
<path fill="none" stroke="#000000" d="M936,-122.0225C936,-139.3734 936,-163 936,-163 936,-163 738.677,-163 738.677,-163"/>
<polygon fill="#000000" stroke="#000000" points="738.677,-159.5001 728.677,-163 738.677,-166.5001 738.677,-159.5001"/>
</g>
<!-- PinsModule -->
<g id="node5" class="node">
<title>PinsModule</title>
<polygon fill="#8dd3c7" stroke="#000000" points="867.6683,-122 864.6683,-126 843.6683,-126 840.6683,-122 784.3317,-122 784.3317,-86 867.6683,-86 867.6683,-122"/>
<text text-anchor="middle" x="826" y="-99.8" font-family="Times,serif" font-size="14.00" fill="#000000">PinsModule</text>
</g>
<!-- PinsModule&#45;&gt;AppModule -->
<g id="edge5" class="edge">
<title>PinsModule&#45;&gt;AppModule</title>
<path fill="none" stroke="#000000" d="M826,-122.2396C826,-137.5706 826,-157 826,-157 826,-157 738.7046,-157 738.7046,-157"/>
<polygon fill="#000000" stroke="#000000" points="738.7046,-153.5001 728.7046,-157 738.7045,-160.5001 738.7046,-153.5001"/>
</g>
<!-- RecommendationModule -->
<g id="node6" class="node">
<title>RecommendationModule</title>
<polygon fill="#8dd3c7" stroke="#000000" points="766.3075,-122 763.3075,-126 742.3075,-126 739.3075,-122 607.6925,-122 607.6925,-86 766.3075,-86 766.3075,-122"/>
<text text-anchor="middle" x="687" y="-99.8" font-family="Times,serif" font-size="14.00" fill="#000000">RecommendationModule</text>
</g>
<!-- RecommendationModule&#45;&gt;AppModule -->
<g id="edge6" class="edge">
<title>RecommendationModule&#45;&gt;AppModule</title>
<path fill="none" stroke="#000000" d="M687,-122.1061C687,-122.1061 687,-140.991 687,-140.991"/>
<polygon fill="#000000" stroke="#000000" points="683.5001,-140.9909 687,-150.991 690.5001,-140.991 683.5001,-140.9909"/>
</g>
<!-- SearchModule -->
<g id="node7" class="node">
<title>SearchModule</title>
<polygon fill="#8dd3c7" stroke="#000000" points="589.6375,-122 586.6375,-126 565.6375,-126 562.6375,-122 492.3625,-122 492.3625,-86 589.6375,-86 589.6375,-122"/>
<text text-anchor="middle" x="541" y="-99.8" font-family="Times,serif" font-size="14.00" fill="#000000">SearchModule</text>
</g>
<!-- SearchModule&#45;&gt;AppModule -->
<g id="edge7" class="edge">
<title>SearchModule&#45;&gt;AppModule</title>
<path fill="none" stroke="#000000" d="M541,-122.2396C541,-137.5706 541,-157 541,-157 541,-157 635.1623,-157 635.1623,-157"/>
<polygon fill="#000000" stroke="#000000" points="635.1623,-160.5001 645.1623,-157 635.1622,-153.5001 635.1623,-160.5001"/>
</g>
<!-- SharedModule -->
<g id="node8" class="node">
<title>SharedModule</title>
<polygon fill="#8dd3c7" stroke="#000000" points="474.4231,-122 471.4231,-126 450.4231,-126 447.4231,-122 375.5769,-122 375.5769,-86 474.4231,-86 474.4231,-122"/>
<text text-anchor="middle" x="425" y="-99.8" font-family="Times,serif" font-size="14.00" fill="#000000">SharedModule</text>
</g>
<!-- SharedModule&#45;&gt;AppModule -->
<g id="edge8" class="edge">
<title>SharedModule&#45;&gt;AppModule</title>
<path fill="none" stroke="#000000" d="M425,-122.0225C425,-139.3734 425,-163 425,-163 425,-163 635.1956,-163 635.1956,-163"/>
<polygon fill="#000000" stroke="#000000" points="635.1956,-166.5001 645.1956,-163 635.1956,-159.5001 635.1956,-166.5001"/>
</g>
<!-- TopicModule -->
<g id="node9" class="node">
<title>TopicModule</title>
<polygon fill="#8dd3c7" stroke="#000000" points="358.2078,-122 355.2078,-126 334.2078,-126 331.2078,-122 265.7922,-122 265.7922,-86 358.2078,-86 358.2078,-122"/>
<text text-anchor="middle" x="312" y="-99.8" font-family="Times,serif" font-size="14.00" fill="#000000">TopicModule</text>
</g>
<!-- TopicModule&#45;&gt;AppModule -->
<g id="edge9" class="edge">
<title>TopicModule&#45;&gt;AppModule</title>
<path fill="none" stroke="#000000" d="M312,-122.1061C312,-141.3391 312,-169 312,-169 312,-169 635.0743,-169 635.0743,-169"/>
<polygon fill="#000000" stroke="#000000" points="635.0743,-172.5001 645.0743,-169 635.0743,-165.5001 635.0743,-172.5001"/>
</g>
<!-- UserModule -->
<g id="node10" class="node">
<title>UserModule</title>
<polygon fill="#8dd3c7" stroke="#000000" points="247.9762,-122 244.9762,-126 223.9762,-126 220.9762,-122 162.0238,-122 162.0238,-86 247.9762,-86 247.9762,-122"/>
<text text-anchor="middle" x="205" y="-99.8" font-family="Times,serif" font-size="14.00" fill="#000000">UserModule</text>
</g>
<!-- UserModule&#45;&gt;AppModule -->
<g id="edge10" class="edge">
<title>UserModule&#45;&gt;AppModule</title>
<path fill="none" stroke="#000000" d="M205,-122.2843C205,-143.3211 205,-175 205,-175 205,-175 635.0688,-175 635.0688,-175"/>
<polygon fill="#000000" stroke="#000000" points="635.0689,-178.5001 645.0688,-175 635.0688,-171.5001 635.0689,-178.5001"/>
</g>
<!-- AppService -->
<g id="node12" class="node">
<title>AppService</title>
<ellipse fill="#fdb462" stroke="#000000" cx="81" cy="-104" rx="56.7406" ry="18"/>
<text text-anchor="middle" x="81" y="-99.8" font-family="Times,serif" font-size="14.00" fill="#000000">AppService</text>
</g>
<!-- AppService&#45;&gt;AppModule -->
<g id="edge11" class="edge">
<title>AppService&#45;&gt;AppModule</title>
<path fill="none" stroke="#000000" d="M81,-122.0908C81,-145.1328 81,-182 81,-182 81,-182 634.8684,-182 634.8684,-182"/>
<polygon fill="#000000" stroke="#000000" points="634.8684,-185.5001 644.8684,-182 634.8684,-178.5001 634.8684,-185.5001"/>
</g>
</g>
</svg>
