<?xml version="1.0" encoding="UTF-8" standalone="no"?>
<!DOCTYPE svg PUBLIC "-//W3C//DTD SVG 1.1//EN"
 "http://www.w3.org/Graphics/SVG/1.1/DTD/svg11.dtd">
<!-- Generated by graphviz version 2.40.1 (20161225.0304)
 -->
<!-- Title: dependencies Pages: 1 -->
<svg width="629pt" height="284pt"
 viewBox="0.00 0.00 629.00 284.00" xmlns="http://www.w3.org/2000/svg" xmlns:xlink="http://www.w3.org/1999/xlink">
<g id="graph0" class="graph" transform="scale(1 1) rotate(0) translate(4 280)">
<title>dependencies</title>
<polygon fill="#ffffff" stroke="transparent" points="-4,4 -4,-280 625,-280 625,4 -4,4"/>
<text text-anchor="start" x="289.5091" y="-42.4" font-family="sans-serif" font-weight="bold" font-size="14.00" fill="#000000">Legend</text>
<polygon fill="#ffffb3" stroke="transparent" points="76.5,-10 76.5,-30 96.5,-30 96.5,-10 76.5,-10"/>
<text text-anchor="start" x="100.129" y="-15.4" font-family="sans-serif" font-size="14.00" fill="#000000"> &#160;Declarations</text>
<polygon fill="#8dd3c7" stroke="transparent" points="189.5,-10 189.5,-30 209.5,-30 209.5,-10 189.5,-10"/>
<text text-anchor="start" x="213.2251" y="-15.4" font-family="sans-serif" font-size="14.00" fill="#000000"> &#160;Module</text>
<polygon fill="#80b1d3" stroke="transparent" points="275.5,-10 275.5,-30 295.5,-30 295.5,-10 275.5,-10"/>
<text text-anchor="start" x="299.2812" y="-15.4" font-family="sans-serif" font-size="14.00" fill="#000000"> &#160;Bootstrap</text>
<polygon fill="#fdb462" stroke="transparent" points="372.5,-10 372.5,-30 392.5,-30 392.5,-10 372.5,-10"/>
<text text-anchor="start" x="396.1732" y="-15.4" font-family="sans-serif" font-size="14.00" fill="#000000"> &#160;Providers</text>
<polygon fill="#fb8072" stroke="transparent" points="468.5,-10 468.5,-30 488.5,-30 488.5,-10 468.5,-10"/>
<text text-anchor="start" x="492.2258" y="-15.4" font-family="sans-serif" font-size="14.00" fill="#000000"> &#160;Exports</text>
<g id="clust1" class="cluster">
<title>cluster_SharedModule</title>
<polygon fill="none" stroke="#000000" stroke-dasharray="1,5" points="8,-70 8,-268 613,-268 613,-70 8,-70"/>
</g>
<g id="clust4" class="cluster">
<title>cluster_SharedModule_exports</title>
<polygon fill="none" stroke="#000000" points="148,-208 148,-260 504,-260 504,-208 148,-208"/>
</g>
<g id="clust6" class="cluster">
<title>cluster_SharedModule_providers</title>
<polygon fill="none" stroke="#000000" points="16,-78 16,-130 605,-130 605,-78 16,-78"/>
</g>
<!-- Email  -->
<g id="node1" class="node">
<title>Email </title>
<polygon fill="#fb8072" stroke="#000000" points="496,-252 442,-252 442,-216 496,-216 496,-252"/>
<text text-anchor="middle" x="469" y="-229.8" font-family="Times,serif" font-size="14.00" fill="#000000">Email </text>
</g>
<!-- NotificationService  -->
<g id="node2" class="node">
<title>NotificationService </title>
<polygon fill="#fb8072" stroke="#000000" points="423.6271,-252 294.3729,-252 294.3729,-216 423.6271,-216 423.6271,-252"/>
<text text-anchor="middle" x="359" y="-229.8" font-family="Times,serif" font-size="14.00" fill="#000000">NotificationService </text>
</g>
<!-- ValidationService  -->
<g id="node3" class="node">
<title>ValidationService </title>
<polygon fill="#fb8072" stroke="#000000" points="276.0765,-252 155.9235,-252 155.9235,-216 276.0765,-216 276.0765,-252"/>
<text text-anchor="middle" x="216" y="-229.8" font-family="Times,serif" font-size="14.00" fill="#000000">ValidationService </text>
</g>
<!-- SharedModule -->
<g id="node4" class="node">
<title>SharedModule</title>
<polygon fill="#8dd3c7" stroke="#000000" points="408.4231,-187 405.4231,-191 384.4231,-191 381.4231,-187 309.5769,-187 309.5769,-151 408.4231,-151 408.4231,-187"/>
<text text-anchor="middle" x="359" y="-164.8" font-family="Times,serif" font-size="14.00" fill="#000000">SharedModule</text>
</g>
<!-- SharedModule&#45;&gt;Email  -->
<g id="edge1" class="edge">
<title>SharedModule&#45;&gt;Email </title>
<path fill="none" stroke="#000000" stroke-dasharray="5,2" d="M408.2412,-175C430.7788,-175 452.5511,-175 452.5511,-175 452.5511,-175 452.5511,-205.9775 452.5511,-205.9775"/>
<polygon fill="#000000" stroke="#000000" points="449.0512,-205.9774 452.5511,-215.9775 456.0512,-205.9775 449.0512,-205.9774"/>
</g>
<!-- SharedModule&#45;&gt;NotificationService  -->
<g id="edge2" class="edge">
<title>SharedModule&#45;&gt;NotificationService </title>
<path fill="none" stroke="#000000" stroke-dasharray="5,2" d="M359,-187.1061C359,-187.1061 359,-205.991 359,-205.991"/>
<polygon fill="#000000" stroke="#000000" points="355.5001,-205.9909 359,-215.991 362.5001,-205.991 355.5001,-205.9909"/>
</g>
<!-- SharedModule&#45;&gt;ValidationService  -->
<g id="edge3" class="edge">
<title>SharedModule&#45;&gt;ValidationService </title>
<path fill="none" stroke="#000000" stroke-dasharray="5,2" d="M309.4908,-175C276.7453,-175 239.8163,-175 239.8163,-175 239.8163,-175 239.8163,-205.9775 239.8163,-205.9775"/>
<polygon fill="#000000" stroke="#000000" points="236.3164,-205.9774 239.8163,-215.9775 243.3164,-205.9775 236.3164,-205.9774"/>
</g>
<!-- ChatService -->
<g id="node5" class="node">
<title>ChatService</title>
<ellipse fill="#fdb462" stroke="#000000" cx="539" cy="-104" rx="58.4628" ry="18"/>
<text text-anchor="middle" x="539" y="-99.8" font-family="Times,serif" font-size="14.00" fill="#000000">ChatService</text>
</g>
<!-- ChatService&#45;&gt;SharedModule -->
<g id="edge4" class="edge">
<title>ChatService&#45;&gt;SharedModule</title>
<path fill="none" stroke="#000000" d="M488.3845,-112.9608C488.3845,-129.4659 488.3845,-163 488.3845,-163 488.3845,-163 418.2838,-163 418.2838,-163"/>
<polygon fill="#000000" stroke="#000000" points="418.2839,-159.5001 408.2838,-163 418.2838,-166.5001 418.2839,-159.5001"/>
</g>
<!-- Email -->
<g id="node6" class="node">
<title>Email</title>
<ellipse fill="#fdb462" stroke="#000000" cx="429" cy="-104" rx="34.2045" ry="18"/>
<text text-anchor="middle" x="429" y="-99.8" font-family="Times,serif" font-size="14.00" fill="#000000">Email</text>
</g>
<!-- Email&#45;&gt;SharedModule -->
<g id="edge5" class="edge">
<title>Email&#45;&gt;SharedModule</title>
<path fill="none" stroke="#000000" d="M401.5545,-114.7334C401.5545,-114.7334 401.5545,-140.8723 401.5545,-140.8723"/>
<polygon fill="#000000" stroke="#000000" points="398.0546,-140.8722 401.5545,-150.8723 405.0546,-140.8723 398.0546,-140.8722"/>
</g>
<!-- NotificationService -->
<g id="node7" class="node">
<title>NotificationService</title>
<ellipse fill="#fdb462" stroke="#000000" cx="290" cy="-104" rx="86.8107" ry="18"/>
<text text-anchor="middle" x="290" y="-99.8" font-family="Times,serif" font-size="14.00" fill="#000000">NotificationService</text>
</g>
<!-- NotificationService&#45;&gt;SharedModule -->
<g id="edge6" class="edge">
<title>NotificationService&#45;&gt;SharedModule</title>
<path fill="none" stroke="#000000" d="M343.2221,-118.4256C343.2221,-118.4256 343.2221,-140.8939 343.2221,-140.8939"/>
<polygon fill="#000000" stroke="#000000" points="339.7222,-140.8938 343.2221,-150.8939 346.7222,-140.8939 339.7222,-140.8938"/>
</g>
<!-- ValidationService -->
<g id="node8" class="node">
<title>ValidationService</title>
<ellipse fill="#fdb462" stroke="#000000" cx="105" cy="-104" rx="80.5142" ry="18"/>
<text text-anchor="middle" x="105" y="-99.8" font-family="Times,serif" font-size="14.00" fill="#000000">ValidationService</text>
</g>
<!-- ValidationService&#45;&gt;SharedModule -->
<g id="edge7" class="edge">
<title>ValidationService&#45;&gt;SharedModule</title>
<path fill="none" stroke="#000000" d="M170.7344,-114.548C170.7344,-131.5185 170.7344,-163 170.7344,-163 170.7344,-163 299.5354,-163 299.5354,-163"/>
<polygon fill="#000000" stroke="#000000" points="299.5355,-166.5001 309.5354,-163 299.5354,-159.5001 299.5355,-166.5001"/>
</g>
</g>
</svg>
