<?xml version="1.0" encoding="UTF-8" standalone="no"?>
<!DOCTYPE svg PUBLIC "-//W3C//DTD SVG 1.1//EN"
 "http://www.w3.org/Graphics/SVG/1.1/DTD/svg11.dtd">
<!-- Generated by graphviz version 2.40.1 (20161225.0304)
 -->
<!-- Title: dependencies Pages: 1 -->
<svg width="504pt" height="284pt"
 viewBox="0.00 0.00 504.00 284.00" xmlns="http://www.w3.org/2000/svg" xmlns:xlink="http://www.w3.org/1999/xlink">
<g id="graph0" class="graph" transform="scale(1 1) rotate(0) translate(4 280)">
<title>dependencies</title>
<polygon fill="#ffffff" stroke="transparent" points="-4,4 -4,-280 500,-280 500,4 -4,4"/>
<text text-anchor="start" x="227.0091" y="-42.4" font-family="sans-serif" font-weight="bold" font-size="14.00" fill="#000000">Legend</text>
<polygon fill="#ffffb3" stroke="transparent" points="14,-10 14,-30 34,-30 34,-10 14,-10"/>
<text text-anchor="start" x="37.629" y="-15.4" font-family="sans-serif" font-size="14.00" fill="#000000"> &#160;Declarations</text>
<polygon fill="#8dd3c7" stroke="transparent" points="127,-10 127,-30 147,-30 147,-10 127,-10"/>
<text text-anchor="start" x="150.7251" y="-15.4" font-family="sans-serif" font-size="14.00" fill="#000000"> &#160;Module</text>
<polygon fill="#80b1d3" stroke="transparent" points="213,-10 213,-30 233,-30 233,-10 213,-10"/>
<text text-anchor="start" x="236.7812" y="-15.4" font-family="sans-serif" font-size="14.00" fill="#000000"> &#160;Bootstrap</text>
<polygon fill="#fdb462" stroke="transparent" points="310,-10 310,-30 330,-30 330,-10 310,-10"/>
<text text-anchor="start" x="333.6732" y="-15.4" font-family="sans-serif" font-size="14.00" fill="#000000"> &#160;Providers</text>
<polygon fill="#fb8072" stroke="transparent" points="406,-10 406,-30 426,-30 426,-10 406,-10"/>
<text text-anchor="start" x="429.7258" y="-15.4" font-family="sans-serif" font-size="14.00" fill="#000000"> &#160;Exports</text>
<g id="clust1" class="cluster">
<title>cluster_RecommendationModule</title>
<polygon fill="none" stroke="#000000" stroke-dasharray="1,5" points="63,-70 63,-268 433,-268 433,-70 63,-70"/>
</g>
<g id="clust3" class="cluster">
<title>cluster_RecommendationModule_imports</title>
<polygon fill="none" stroke="#000000" points="311,-78 311,-130 425,-130 425,-78 311,-78"/>
</g>
<g id="clust4" class="cluster">
<title>cluster_RecommendationModule_exports</title>
<polygon fill="none" stroke="#000000" points="174,-208 174,-260 350,-260 350,-208 174,-208"/>
</g>
<g id="clust6" class="cluster">
<title>cluster_RecommendationModule_providers</title>
<polygon fill="none" stroke="#000000" points="71,-78 71,-130 303,-130 303,-78 71,-78"/>
</g>
<!-- SharedModule -->
<g id="node1" class="node">
<title>SharedModule</title>
<polygon fill="#8dd3c7" stroke="#000000" points="417.4231,-122 414.4231,-126 393.4231,-126 390.4231,-122 318.5769,-122 318.5769,-86 417.4231,-86 417.4231,-122"/>
<text text-anchor="middle" x="368" y="-99.8" font-family="Times,serif" font-size="14.00" fill="#000000">SharedModule</text>
</g>
<!-- RecommendationModule -->
<g id="node2" class="node">
<title>RecommendationModule</title>
<polygon fill="#8dd3c7" stroke="#000000" points="341.3075,-187 338.3075,-191 317.3075,-191 314.3075,-187 182.6925,-187 182.6925,-151 341.3075,-151 341.3075,-187"/>
<text text-anchor="middle" x="262" y="-164.8" font-family="Times,serif" font-size="14.00" fill="#000000">RecommendationModule</text>
</g>
<!-- SharedModule&#45;&gt;RecommendationModule -->
<g id="edge1" class="edge">
<title>SharedModule&#45;&gt;RecommendationModule</title>
<path fill="none" stroke="#000000" d="M329.9713,-122.1061C329.9713,-122.1061 329.9713,-140.991 329.9713,-140.991"/>
<polygon fill="#000000" stroke="#000000" points="326.4713,-140.9909 329.9713,-150.991 333.4713,-140.991 326.4713,-140.9909"/>
</g>
<!-- RecommendationService  -->
<g id="node3" class="node">
<title>RecommendationService </title>
<polygon fill="#fb8072" stroke="#000000" points="342.2352,-252 181.7648,-252 181.7648,-216 342.2352,-216 342.2352,-252"/>
<text text-anchor="middle" x="262" y="-229.8" font-family="Times,serif" font-size="14.00" fill="#000000">RecommendationService </text>
</g>
<!-- RecommendationModule&#45;&gt;RecommendationService  -->
<g id="edge2" class="edge">
<title>RecommendationModule&#45;&gt;RecommendationService </title>
<path fill="none" stroke="#000000" stroke-dasharray="5,2" d="M262,-187.1061C262,-187.1061 262,-205.991 262,-205.991"/>
<polygon fill="#000000" stroke="#000000" points="258.5001,-205.9909 262,-215.991 265.5001,-205.991 258.5001,-205.9909"/>
</g>
<!-- RecommendationService -->
<g id="node4" class="node">
<title>RecommendationService</title>
<ellipse fill="#fdb462" stroke="#000000" cx="187" cy="-104" rx="108.226" ry="18"/>
<text text-anchor="middle" x="187" y="-99.8" font-family="Times,serif" font-size="14.00" fill="#000000">RecommendationService</text>
</g>
<!-- RecommendationService&#45;&gt;RecommendationModule -->
<g id="edge3" class="edge">
<title>RecommendationService&#45;&gt;RecommendationModule</title>
<path fill="none" stroke="#000000" d="M238.9797,-120.0674C238.9797,-120.0674 238.9797,-140.8237 238.9797,-140.8237"/>
<polygon fill="#000000" stroke="#000000" points="235.4798,-140.8236 238.9797,-150.8237 242.4798,-140.8237 235.4798,-140.8236"/>
</g>
</g>
</svg>
